<svg width="67" height="67" viewBox="0 0 67 67" fill="none" xmlns="http://www.w3.org/2000/svg">
<circle cx="33.5" cy="33.5" r="33.5" fill="#FF0000"/>
<path d="M46.3516 26.3184L51.5371 33.1562V33.4902L46.3516 40.3281H43.8555L48.3906 33.332L43.8555 26.3184H46.3516ZM52.4863 26.3184L57.6719 33.1562V33.4902L52.4863 40.3281H49.9902L54.5254 33.332L49.9902 26.3184H52.4863Z" fill="white"/>
<path d="M13.9668 33.3672L18.502 40.3457H16.0234L10.8379 33.5254V33.1914L16.0234 26.3535H18.502L13.9668 33.3672ZM19.7676 33.3672L24.3027 40.3457H21.8242L16.6387 33.5254V33.1914L21.8242 26.3535H24.3027L19.7676 33.3672Z" fill="white"/>
<line x1="33.5" y1="18" x2="33.5" y2="48" stroke="white"/>
</svg>
