<svg width="69" height="47" viewBox="0 0 69 47" fill="none" xmlns="http://www.w3.org/2000/svg">
<path d="M67.519 10.129C67.519 10.129 66.8512 5.52848 64.808 3.50268C62.2173 0.842995 59.3061 0.829926 57.9774 0.673089C48.4291 0 34.1134 0 34.1134 0H34.0867C34.0867 0 19.7709 0 10.2227 0.673089C8.89391 0.829926 5.98269 0.842995 3.39197 3.50268C1.34878 5.52848 0.681065 10.129 0.681065 10.129C0.681065 10.129 0 15.5268 0 20.9311V25.9956C0 31.3999 0.681065 36.7977 0.681065 36.7977C0.681065 36.7977 1.34878 41.3983 3.39197 43.4241C5.98937 46.0837 9.3947 45.9988 10.9104 46.2798C16.3656 46.7895 34.1 46.9529 34.1 46.9529C34.1 46.9529 48.4291 46.9333 57.9774 46.2537C59.3128 46.0968 62.2173 46.0837 64.808 43.4241C66.8512 41.3983 67.519 36.7977 67.519 36.7977C67.519 36.7977 68.2 31.3934 68.2 25.9956V20.9311C68.2 15.5268 67.519 10.129 67.519 10.129ZM27.0557 32.1318V13.3768L45.4845 22.787L27.0557 32.1318Z" fill="#282928" fill-opacity="0.8"/>
<path d="M27.0557 32.1316L45.4845 22.7869L27.0557 13.3768V32.1316Z" fill="white"/>
<path opacity="0.12" fill-rule="evenodd" clip-rule="evenodd" d="M27.0557 13.3768L43.2143 23.937L45.4845 22.7869L27.0557 13.3768Z" fill="black"/>
</svg>
